<svg id="Layer_4" data-name="Layer 4" xmlns="http://www.w3.org/2000/svg" xmlns:xlink="http://www.w3.org/1999/xlink" viewBox="0 0 5394.1 6228.57"><defs><style>.cls-1,.cls-10,.cls-11,.cls-12,.cls-4{fill:none;}.cls-2{clip-path:url(#clip-path);}.cls-3{fill:#2d2d2d;stroke:#000;}.cls-10,.cls-11,.cls-12,.cls-3,.cls-4{stroke-miterlimit:10;}.cls-4{stroke:#2171b5;}.cls-10,.cls-11,.cls-12,.cls-4{stroke-width:61px;}.cls-5{fill:#2171b5;}.cls-13,.cls-6{fill:#d9d9d9;}.cls-7{fill:#969696;}.cls-8{fill:#fcbf49;}.cls-9{fill:#a3c586;}.cls-10{stroke:#969696;}.cls-11{stroke:#d9d9d9;}.cls-12{stroke:#fcbf49;}.cls-13{font-size:737px;font-family:Courier-Bold, Courier;font-weight:700;}</style><clipPath id="clip-path"><polygon class="cls-1" points="5394.1 4671.42 5394.1 1557.14 2697.05 0 0 1557.14 0 4671.42 2697.05 6228.56 5394.1 4671.42"/></clipPath></defs><g class="cls-2"><rect class="cls-3" x="-592.89" y="-217.93" width="6735.13" height="6633.21"/><path class="cls-4" d="M2407.12,2167.08c-582-43-1086.74,26.58-1165.36,206-80.51,183.67,271.61,514.78,934.33,789.37"/><polygon class="cls-5" points="2068.23 3302.03 2404.91 3250.34 2191.85 2984.58 2068.23 3302.03"/><path class="cls-6" d="M2913.15,4023.56l-210.29,263.26-209.22-264.11,1.14-557.34L2704,3741.47l210.31-275.25Z"/><path class="cls-7" d="M2914.87,3342.22q-105.15,131.63-210.29,263.26l-209.22-264.12L2496.5,2784l209.19,276.1L2916,2784.87Z"/><path class="cls-5" d="M2914.93,2660.87l-210.29,263.26L2495.43,2660l1.13-557.34,209.19,276.1q105.16-137.61,210.32-275.24Z"/><path class="cls-8" d="M2912.11,4704.91l-210.29,263.26L2492.6,4704.06l1.14-557.35,209.19,276.11,210.31-275.25Z"/><path class="cls-9" d="M2910.69,5386.26,2700.4,5649.52,2491.19,5385.4l1.13-557.34,209.2,276.1q105.15-137.62,210.31-275.24Z"/><path class="cls-10" d="M2405.73,2852.08c-531.52-42.94-992.48,26.77-1064.31,206.15-72.88,182,242,508.6,836.35,781.55"/><polygon class="cls-7" points="2065.29 3975.64 2403.52 3935.34 2199.54 3662.54 2065.29 3975.64"/><path class="cls-11" d="M2404.36,3520.76c-440.77-42.75-823.07,27.11-882.71,206.52-59.23,178.21,189.78,494.95,662.77,764.11"/><polygon class="cls-6" points="2061.8 4617.56 2402.16 4604.02 2220.3 4316.01 2061.8 4617.56"/><path class="cls-12" d="M2403,4189.48c-345-42.55-644.27,27.48-691,206.92-45,172.87,136.81,475.92,485.49,739.4"/><polygon class="cls-8" points="2061.2 5246.28 2400.8 5272.74 2253.96 4965.39 2061.2 5246.28"/><path class="cls-4" d="M3004.87,2167.08c582-43,1086.74,26.58,1165.36,206,80.51,183.67-271.61,514.78-934.33,789.37"/><polygon class="cls-5" points="3220.14 2984.58 3007.07 3250.34 3343.76 3302.03 3220.14 2984.58"/><path class="cls-10" d="M2997.64,2852.08c531.52-42.94,992.48,26.77,1064.32,206.15,72.87,182-242,508.6-836.36,781.55"/><polygon class="cls-7" points="3203.83 3662.54 2999.85 3935.34 3338.08 3975.64 3203.83 3662.54"/><path class="cls-11" d="M3004.87,3520.76c440.77-42.75,823.08,27.11,882.71,206.52,59.24,178.21-189.77,494.95-662.77,764.11"/><polygon class="cls-6" points="3188.94 4316.01 3007.07 4604.02 3347.43 4617.56 3188.94 4316.01"/><path class="cls-12" d="M2997.64,4189.48c345-42.55,644.27,27.48,691,206.92,45,172.87-136.82,475.92-485.49,739.4"/><polygon class="cls-8" points="3146.69 4965.39 2999.85 5272.74 3339.45 5246.28 3146.69 4965.39"/><path class="cls-7" d="M2696.49,6245.12-15.46,4679.38V1547.89l2712-1565.74L5408.43,1547.89V4679.38l-45.75,26.41ZM167.54,4573.73l2529,1460.08L5225.43,4573.73V1653.55L2696.49,193.46,167.54,1653.55Z"/><text class="cls-13" transform="translate(943.01 1822.07)">reactlog</text></g></svg>